<svg width="24" height="22" viewBox="0 0 24 22" fill="none" xmlns="http://www.w3.org/2000/svg">
<path d="M22.3753 17.6121L18.5534 13.8905L15.6137 12.7078C16.5925 11.3523 17.1169 9.73525 17.1151 8.0782C17.1151 3.62385 13.3936 0 8.81937 0C4.2451 0 0.523682 3.62385 0.523682 8.0782C0.523682 12.5326 4.2451 16.1564 8.81937 16.1564C10.5358 16.1583 12.2102 15.6388 13.6091 14.6703L14.8205 17.5252L18.6422 21.2471C18.8873 21.4858 19.1783 21.6751 19.4985 21.8043C19.8188 21.9335 20.162 22 20.5087 22C20.8553 22 21.1985 21.9335 21.5188 21.8044C21.839 21.6752 22.13 21.4859 22.3752 21.2472C22.6203 21.0085 22.8147 20.7252 22.9474 20.4133C23.08 20.1015 23.1483 19.7672 23.1483 19.4297C23.1483 19.0921 23.0801 18.7579 22.9474 18.446C22.8148 18.1342 22.6204 17.8508 22.3753 17.6121ZM2.03199 8.0782C2.03199 4.43383 5.07688 1.46876 8.81937 1.46876C12.5619 1.46876 15.6067 4.43383 15.6067 8.0782C15.6067 11.7226 12.5619 14.6876 8.81937 14.6876C5.07688 14.6876 2.03199 11.7226 2.03199 8.0782ZM21.3087 20.2085C21.0963 20.4148 20.8087 20.5307 20.5087 20.5307C20.2088 20.5307 19.9211 20.4148 19.7088 20.2085L16.0996 16.694L14.9734 14.0394L17.6995 15.1361L21.3088 18.6507C21.5206 18.8575 21.6395 19.1376 21.6395 19.4296C21.6395 19.7217 21.5205 20.0018 21.3087 20.2085Z" fill="#636773"/>
</svg>
